<?xml version="1.0" encoding="UTF-8" standalone="no"?><!DOCTYPE svg PUBLIC "-//W3C//DTD SVG 1.1//EN" "http://www.w3.org/Graphics/SVG/1.1/DTD/svg11.dtd"><svg width="100%" height="100%" viewBox="0 0 9 10" version="1.1" xmlns="http://www.w3.org/2000/svg" xmlns:xlink="http://www.w3.org/1999/xlink" xml:space="preserve" xmlns:serif="http://www.serif.com/" style="fill-rule:evenodd;clip-rule:evenodd;stroke-linejoin:round;stroke-miterlimit:2;"><g id="autocheckout-selected"><path d="M3.197,8.992c0.46,0 0.833,-0.373 0.833,-0.833c0,-0.46 -0.373,-0.833 -0.833,-0.833c-0.46,0 -0.833,0.373 -0.833,0.833c0,0.46 0.373,0.833 0.833,0.833Z" style="fill:#ff7bb4;"/><path d="M6.53,8.992c0.46,0 0.834,-0.373 0.834,-0.833c0,-0.46 -0.374,-0.833 -0.834,-0.833c-0.46,0 -0.833,0.373 -0.833,0.833c0,0.46 0.373,0.833 0.833,0.833Z" style="fill:#ff7bb4;"/><path d="M8.268,3.313c-0.079,-0.1 -0.196,-0.154 -0.321,-0.154l-5.825,0l-0.183,-0.917c-0.038,-0.191 -0.209,-0.333 -0.409,-0.333l-1.083,0c-0.229,0 -0.417,0.187 -0.417,0.417c0,0.229 0.188,0.416 0.417,0.416l0.742,0l0.766,3.834c0.038,0.191 0.209,0.333 0.409,0.333l5,0c0.2,0 0.37,-0.142 0.408,-0.333l0.583,-2.917c0.025,-0.125 -0.008,-0.25 -0.087,-0.346Z" style="fill:#fff;"/><path d="M6.197,2.943l-1.005,0c-0.13,0 -0.249,-0.07 -0.314,-0.183c-0.064,-0.112 -0.062,-0.251 0.004,-0.362c0.319,-0.535 0.815,-1.366 1.219,-2.043c0.083,-0.139 0.249,-0.206 0.405,-0.163c0.157,0.043 0.265,0.185 0.265,0.348l0,1.105l1.005,0c0.13,0 0.25,0.07 0.314,0.182c0.064,0.113 0.062,0.252 -0.004,0.363c-0.319,0.535 -0.815,1.366 -1.218,2.043c-0.084,0.139 -0.25,0.206 -0.406,0.163c-0.157,-0.043 -0.265,-0.185 -0.265,-0.348l0,-1.105Z" style="fill:#ff7bb4;"/></g></svg>