<?xml version="1.0" encoding="UTF-8" standalone="no"?><!DOCTYPE svg PUBLIC "-//W3C//DTD SVG 1.1//EN" "http://www.w3.org/Graphics/SVG/1.1/DTD/svg11.dtd"><svg width="100%" height="100%" viewBox="0 0 9 10" version="1.1" xmlns="http://www.w3.org/2000/svg" xmlns:xlink="http://www.w3.org/1999/xlink" xml:space="preserve" xmlns:serif="http://www.serif.com/" style="fill-rule:evenodd;clip-rule:evenodd;stroke-linejoin:round;stroke-miterlimit:2;"><g id="autocheckout"><path d="M3.203,8.992c0.461,0 0.834,-0.373 0.834,-0.833c0,-0.46 -0.373,-0.833 -0.834,-0.833c-0.46,0 -0.833,0.373 -0.833,0.833c0,0.46 0.373,0.833 0.833,0.833Z" style="fill:#7a7aa1;"/><path d="M6.537,8.992c0.46,0 0.833,-0.373 0.833,-0.833c0,-0.46 -0.373,-0.833 -0.833,-0.833c-0.461,0 -0.834,0.373 -0.834,0.833c0,0.46 0.373,0.833 0.834,0.833Z" style="fill:#7a7aa1;"/><path d="M8.274,3.313c-0.079,-0.1 -0.196,-0.154 -0.321,-0.154l-5.825,0l-0.183,-0.917c-0.038,-0.191 -0.208,-0.333 -0.408,-0.333l-1.084,0c-0.229,0 -0.416,0.187 -0.416,0.417c0,0.229 0.187,0.416 0.416,0.416l0.742,0l0.767,3.834c0.037,0.191 0.208,0.333 0.408,0.333l5,0c0.2,0 0.371,-0.142 0.408,-0.333l0.584,-2.917c0.025,-0.125 -0.009,-0.25 -0.088,-0.346Z" style="fill:#2c2c55;"/><path d="M6.204,2.943l-1.005,0c-0.13,0 -0.25,-0.07 -0.314,-0.183c-0.064,-0.112 -0.063,-0.251 0.004,-0.362c0.319,-0.535 0.814,-1.366 1.218,-2.043c0.083,-0.139 0.249,-0.206 0.406,-0.163c0.156,0.043 0.265,0.185 0.265,0.348l0,1.105l1.004,0c0.13,0 0.25,0.07 0.314,0.182c0.064,0.113 0.063,0.252 -0.004,0.363c-0.319,0.535 -0.814,1.366 -1.218,2.043c-0.083,0.139 -0.249,0.206 -0.406,0.163c-0.156,-0.043 -0.264,-0.185 -0.264,-0.348l0,-1.105Z" style="fill:#7a7aa1;"/></g></svg>