<?xml version="1.0" encoding="UTF-8" standalone="no"?><!DOCTYPE svg PUBLIC "-//W3C//DTD SVG 1.1//EN" "http://www.w3.org/Graphics/SVG/1.1/DTD/svg11.dtd"><svg width="100%" height="100%" viewBox="0 0 8 8" version="1.1" xmlns="http://www.w3.org/2000/svg" xmlns:xlink="http://www.w3.org/1999/xlink" xml:space="preserve" xmlns:serif="http://www.serif.com/" style="fill-rule:evenodd;clip-rule:evenodd;stroke-linejoin:round;stroke-miterlimit:2;"><g id="autoclicker"><path d="M4.429,0.236c1.781,0 3.226,1.445 3.226,3.226c0,1.78 -1.445,3.226 -3.226,3.226c-1.78,0 -3.226,-1.446 -3.226,-3.226c0,-1.781 1.446,-3.226 3.226,-3.226Zm0,0.908c1.28,0 2.318,1.039 2.318,2.318c0,1.279 -1.038,2.318 -2.318,2.318c-1.279,0 -2.318,-1.039 -2.318,-2.318c0,-1.279 1.039,-2.318 2.318,-2.318Z" style="fill:#2c2c55;"/><path d="M0.302,5.12c-0.161,-0.1 -0.25,-0.285 -0.229,-0.473c0.022,-0.189 0.15,-0.349 0.329,-0.411c1.11,-0.381 2.906,-1 4.006,-1.378c0.178,-0.062 0.375,-0.016 0.508,0.117c0.133,0.133 0.179,0.331 0.117,0.509c-0.378,1.099 -0.997,2.896 -1.378,4.005c-0.062,0.179 -0.222,0.307 -0.41,0.329c-0.189,0.021 -0.373,-0.068 -0.474,-0.229c-0.339,-0.545 -0.738,-1.184 -0.887,-1.424c-0.04,-0.064 -0.094,-0.118 -0.158,-0.158c-0.239,-0.149 -0.879,-0.548 -1.424,-0.887Z" style="fill:#7a7aa1;"/></g></svg>