<?xml version="1.0" encoding="UTF-8" standalone="no"?><!DOCTYPE svg PUBLIC "-//W3C//DTD SVG 1.1//EN" "http://www.w3.org/Graphics/SVG/1.1/DTD/svg11.dtd"><svg width="100%" height="100%" viewBox="0 0 10 10" version="1.1" xmlns="http://www.w3.org/2000/svg" xmlns:xlink="http://www.w3.org/1999/xlink" xml:space="preserve" xmlns:serif="http://www.serif.com/" style="fill-rule:evenodd;clip-rule:evenodd;stroke-linejoin:round;stroke-miterlimit:2;"><g id="autofill"><path d="M9.362,1.578c0,-0.806 -0.654,-1.46 -1.46,-1.46l-6.434,0c-0.806,0 -1.46,0.654 -1.46,1.46l0,1.025c0,0.807 0.654,1.46 1.46,1.46l6.434,0c0.806,0 1.46,-0.653 1.46,-1.46l0,-1.025Z" style="fill:#2c2c55;"/><path d="M9.362,6.568c0,-0.807 -0.654,-1.46 -1.46,-1.46l-6.434,0c-0.806,0 -1.46,0.653 -1.46,1.46l0,1.025c0,0.807 0.654,1.46 1.46,1.46l6.434,0c0.806,0 1.46,-0.653 1.46,-1.46l0,-1.025Z" style="fill:#2c2c55;"/><path d="M5.806,2.091c0,-0.16 -0.063,-0.314 -0.177,-0.427c-0.113,-0.113 -0.266,-0.177 -0.427,-0.177l-3.542,0c-0.16,0 -0.313,0.064 -0.426,0.177c-0.114,0.113 -0.177,0.267 -0.177,0.427l0,0c0,0.16 0.063,0.313 0.177,0.427c0.113,0.113 0.266,0.176 0.426,0.176l3.542,0c0.161,0 0.314,-0.063 0.427,-0.176c0.114,-0.114 0.177,-0.267 0.177,-0.427l0,0Z" style="fill:#7a7aa1;"/><path d="M3.431,7.08c0,-0.16 -0.063,-0.313 -0.176,-0.426c-0.114,-0.114 -0.267,-0.177 -0.427,-0.177c-0.358,0 -0.81,0 -1.168,0c-0.16,0 -0.313,0.063 -0.426,0.177c-0.114,0.113 -0.177,0.266 -0.177,0.426c0,0 0,0.001 0,0.001c0,0.16 0.063,0.313 0.177,0.426c0.113,0.114 0.266,0.177 0.426,0.177c0.358,0 0.81,0 1.168,0c0.16,0 0.313,-0.063 0.427,-0.177c0.113,-0.113 0.176,-0.266 0.176,-0.426c0,0 0,-0.001 0,-0.001Z" style="fill:#7a7aa1;"/></g></svg>