<?xml version="1.0" encoding="UTF-8" standalone="no"?><!DOCTYPE svg PUBLIC "-//W3C//DTD SVG 1.1//EN" "http://www.w3.org/Graphics/SVG/1.1/DTD/svg11.dtd"><svg width="100%" height="100%" viewBox="0 0 10 9" version="1.1" xmlns="http://www.w3.org/2000/svg" xmlns:xlink="http://www.w3.org/1999/xlink" xml:space="preserve" xmlns:serif="http://www.serif.com/" style="fill-rule:evenodd;clip-rule:evenodd;stroke-linejoin:round;stroke-miterlimit:2;"><g id="botsim-selected"><path d="M9.354,3.709c0,-0.666 -0.265,-1.304 -0.735,-1.774c-0.471,-0.471 -1.109,-0.735 -1.774,-0.735c-1.343,0 -2.993,0 -4.336,0c-0.666,0 -1.304,0.264 -1.774,0.735c-0.471,0.47 -0.735,1.108 -0.735,1.774c0,0.834 0,1.762 0,2.596c0,0.665 0.264,1.303 0.735,1.774c0.47,0.47 1.108,0.734 1.774,0.734c1.343,0 2.993,0 4.336,0c0.665,0 1.303,-0.264 1.774,-0.734c0.47,-0.471 0.735,-1.109 0.735,-1.774c0,-0.834 0,-1.762 0,-2.596Z" style="fill:#fff;"/><path d="M6.606,1.831c0,-1.011 -0.82,-1.831 -1.831,-1.831l-0.411,0c-1.012,0 -1.832,0.82 -1.832,1.831l0,0c0,1.012 0.82,1.832 1.832,1.832l0.411,0c1.011,0 1.831,-0.82 1.831,-1.832l0,0Z" style="fill:#fff;"/><path d="M3.721,6.303c0.469,0 0.848,-0.38 0.848,-0.848c0,-0.591 0,-1.376 0,-1.967c0,-0.468 -0.379,-0.848 -0.848,-0.848c0,0 0,0 0,0c-0.468,0 -0.847,0.38 -0.847,0.848c0,0.591 0,1.376 0,1.967c0,0.468 0.379,0.848 0.847,0.848c0,0 0,0 0,0Z" style="fill:#ff7bb4;"/><path d="M7.126,6.303c0.468,0 0.848,-0.38 0.848,-0.848c0,-0.591 0,-1.376 0,-1.967c0,-0.468 -0.38,-0.848 -0.848,-0.848c0,0 0,0 0,0c-0.469,0 -0.848,0.38 -0.848,0.848c0,0.591 0,1.376 0,1.967c0,0.468 0.379,0.848 0.848,0.848c0,0 0,0 0,0Z" style="fill:#ff7bb4;"/></g></svg>