<?xml version="1.0" encoding="UTF-8" standalone="no"?><!DOCTYPE svg PUBLIC "-//W3C//DTD SVG 1.1//EN" "http://www.w3.org/Graphics/SVG/1.1/DTD/svg11.dtd"><svg width="100%" height="100%" viewBox="0 0 13 11" version="1.1" xmlns="http://www.w3.org/2000/svg" xmlns:xlink="http://www.w3.org/1999/xlink" xml:space="preserve" xmlns:serif="http://www.serif.com/" style="fill-rule:evenodd;clip-rule:evenodd;stroke-linejoin:round;stroke-miterlimit:2;"><g id="linkopener-selected"><circle cx="5.189" cy="5.25" r="5.189" style="fill:#fff;"/><path d="M12.025,7.967c0.175,0.098 0.284,0.284 0.284,0.485c0,0.201 -0.109,0.386 -0.284,0.484c-0.796,0.446 -1.969,1.103 -2.752,1.542c-0.172,0.097 -0.383,0.095 -0.553,-0.005c-0.17,-0.1 -0.274,-0.282 -0.274,-0.479l0,-3.084c0,-0.197 0.104,-0.38 0.274,-0.48c0.17,-0.099 0.381,-0.101 0.553,-0.005c0.783,0.439 1.956,1.096 2.752,1.542Z" style="fill:#ff7bb4;"/><path d="M3.573,4.662l-0.842,0.842c-0.601,0.609 -0.599,1.591 0.007,2.197c0.608,0.608 1.596,0.608 2.204,0c0,0 0.835,-0.835 0.835,-0.835c0.148,-0.147 0.148,-0.387 0,-0.535c-0.148,-0.147 -0.387,-0.147 -0.535,0l-0.835,0.835c-0.313,0.313 -0.821,0.313 -1.134,0c-0.312,-0.312 -0.313,-0.817 -0.004,-1.131c0,0.001 0.005,-0.004 0.005,-0.004c-0.001,0.001 0.834,-0.834 0.834,-0.834c0.147,-0.148 0.147,-0.387 0,-0.535c-0.148,-0.148 -0.388,-0.148 -0.535,0Zm2.054,-0.385l-1.412,1.412c-0.148,0.148 -0.148,0.388 0,0.535c0.147,0.148 0.387,0.148 0.535,0l1.412,-1.412c0.148,-0.148 0.148,-0.388 0,-0.535c-0.147,-0.148 -0.387,-0.148 -0.535,0Zm-0.492,-0.107l0.835,-0.835c-0.001,0.001 0.004,-0.005 0.004,-0.005c0.313,-0.308 0.818,-0.307 1.13,0.005c0.313,0.313 0.313,0.821 0,1.134c0,0 -0.835,0.835 -0.835,0.835c-0.147,0.148 -0.147,0.387 0,0.535c0.148,0.148 0.388,0.148 0.535,0l0.835,-0.835c0.608,-0.608 0.608,-1.596 0,-2.204c-0.606,-0.606 -1.588,-0.608 -2.197,-0.007l-0.842,0.842c-0.148,0.147 -0.148,0.387 0,0.535c0.148,0.147 0.387,0.147 0.535,0Z" style="fill:#ff7bb4;"/></g></svg>