<?xml version="1.0" encoding="UTF-8" standalone="no"?><!DOCTYPE svg PUBLIC "-//W3C//DTD SVG 1.1//EN" "http://www.w3.org/Graphics/SVG/1.1/DTD/svg11.dtd"><svg width="100%" height="100%" viewBox="0 0 13 11" version="1.1" xmlns="http://www.w3.org/2000/svg" xmlns:xlink="http://www.w3.org/1999/xlink" xml:space="preserve" xmlns:serif="http://www.serif.com/" style="fill-rule:evenodd;clip-rule:evenodd;stroke-linejoin:round;stroke-miterlimit:2;"><g id="linkopener"><circle cx="5.399" cy="5.25" r="5.189" style="fill:#2c2c55;"/><path d="M12.235,7.967c0.176,0.098 0.284,0.284 0.284,0.485c0,0.201 -0.108,0.386 -0.284,0.484c-0.796,0.446 -1.968,1.103 -2.752,1.542c-0.172,0.097 -0.382,0.095 -0.552,-0.005c-0.17,-0.1 -0.275,-0.282 -0.275,-0.479l0,-3.084c0,-0.197 0.105,-0.38 0.275,-0.48c0.17,-0.099 0.38,-0.101 0.552,-0.005c0.784,0.439 1.956,1.096 2.752,1.542Z" style="fill:#7a7aa1;"/><path d="M3.783,4.662l-0.841,0.842c-0.602,0.609 -0.599,1.591 0.007,2.197c0.608,0.608 1.596,0.608 2.204,0c0,0 0.835,-0.835 0.835,-0.835c0.147,-0.147 0.147,-0.387 0,-0.535c-0.148,-0.147 -0.388,-0.147 -0.535,0l-0.835,0.835c-0.313,0.313 -0.821,0.313 -1.134,0c-0.312,-0.312 -0.313,-0.817 -0.004,-1.131c-0.001,0.001 0.005,-0.004 0.005,-0.004c-0.001,0.001 0.833,-0.834 0.833,-0.834c0.148,-0.148 0.148,-0.387 0,-0.535c-0.147,-0.148 -0.387,-0.148 -0.535,0Zm2.055,-0.385l-1.413,1.412c-0.147,0.148 -0.147,0.388 0,0.535c0.148,0.148 0.388,0.148 0.535,0l1.413,-1.412c0.148,-0.148 0.148,-0.388 0,-0.535c-0.148,-0.148 -0.388,-0.148 -0.535,0Zm-0.492,-0.107l0.834,-0.835c-0.001,0.001 0.005,-0.005 0.005,-0.005c0.312,-0.308 0.818,-0.307 1.13,0.005c0.313,0.313 0.313,0.821 0,1.134c0,0 -0.835,0.835 -0.835,0.835c-0.148,0.148 -0.148,0.387 0,0.535c0.148,0.148 0.387,0.148 0.535,0l0.835,-0.835c0.608,-0.608 0.608,-1.596 0,-2.204c-0.606,-0.606 -1.589,-0.608 -2.198,-0.007l-0.841,0.842c-0.148,0.147 -0.148,0.387 0,0.535c0.147,0.147 0.387,0.147 0.535,0Z" style="fill:#7a7aa1;"/></g></svg>